# xmcd
#
# Track frame offsets:
#	150
#	17840
#	32487
#	46562
#	65910
#	81400
#	93100
#	112530
#	127987
#	142660
#	152435
#	171542
#	187322
#
# Disc length: 2861 seconds
#
# Revision: 1
# Processed by: cddbd v1.5.1PL0 Copyright (c) Steve Scherf et al.
# Submitted via: audiograbber 1.83.01
#
DISCID=9d0b2b0d
DTITLE=The Booda Velvets - Headrush
DYEAR=2001
DGENRE=Rock
TTITLE0=Staring at the Sun
TTITLE1=Sleepless
TTITLE2=Cassius Clay
TTITLE3=Headrush
TTITLE4=Altitude
TTITLE5=Everything Goes Away
TTITLE6=American
TTITLE7=Bluer than Blue
TTITLE8=Everything Under the Sun
TTITLE9=Cold Call
TTITLE10=Solitaire
TTITLE11=Waiting
TTITLE12=Salome's Wish
EXTD=
EXTT0=
EXTT1=
EXTT2=
EXTT3=
EXTT4=
EXTT5=
EXTT6=
EXTT7=
EXTT8=
EXTT9=
EXTT10=
EXTT11=
EXTT12=
PLAYORDER=
